<?xml version="1.0" standalone="no"?>
<!DOCTYPE svg PUBLIC "-//W3C//DTD SVG 20010904//EN"
 "http://www.w3.org/TR/2001/REC-SVG-20010904/DTD/svg10.dtd">
<svg version="1.0" xmlns="http://www.w3.org/2000/svg"
 width="583.000000pt" height="562.000000pt" viewBox="0 0 583.000000 562.000000"
 preserveAspectRatio="xMidYMid meet">

<g transform="translate(0.000000,562.000000) scale(0.100000,-0.100000)"
fill="#000000" stroke="none">
<path d="M1605 4945 c-163 -40 -376 -205 -474 -368 -68 -114 -85 -172 -86
-283 0 -95 2 -103 30 -150 44 -71 99 -99 190 -97 311 7 699 457 636 738 -18
80 -84 148 -160 164 -61 13 -70 13 -136 -4z"/>
<path d="M1255 3959 c-232 -48 -390 -127 -544 -274 -268 -254 -357 -642 -244
-1065 58 -218 185 -463 356 -690 78 -102 290 -321 427 -441 47 -41 101 -89
120 -107 61 -57 406 -326 530 -413 218 -154 582 -396 735 -489 131 -80 274
-154 282 -147 2 3 -110 101 -249 218 -308 260 -623 571 -788 779 -64 80 -123
156 -133 170 -196 288 -319 519 -410 775 -161 451 -167 842 -17 1111 174 313
569 406 1117 263 101 -27 348 -109 373 -124 6 -3 10 -4 10 -2 0 18 -349 215
-470 266 -30 13 -68 29 -85 37 -107 49 -298 104 -467 133 -155 28 -411 28
-543 0z"/>
<path d="M2620 1995 c-110 -17 -384 -66 -385 -68 -1 -1 -35 -49 -76 -107 -42
-58 -86 -120 -99 -139 l-24 -34 35 6 c19 3 59 11 89 16 529 96 594 97 659 15
l21 -27 0 92 0 91 -50 0 -50 0 0 35 0 35 50 0 c53 0 56 3 40 44 -18 48 -83 61
-210 41z"/>
<path d="M3052 1894 c-91 -93 -142 -171 -142 -219 0 -18 2 -17 13 4 6 14 28
34 47 45 50 29 166 25 380 -13 321 -58 352 -63 356 -59 4 4 -165 241 -189 265
-7 6 -52 19 -102 28 -49 9 -115 20 -145 26 -128 24 -115 28 -218 -77z"/>
</g>
</svg>
